<svg width="352" height="66" viewBox="0 0 352 66" fill="none" xmlns="http://www.w3.org/2000/svg">
<path d="M91.7519 55.6776V29.3137C91.7519 22.3265 95.5352 18.5432 102.505 18.5432H113.054C113.154 18.5383 113.254 18.5543 113.347 18.5903C113.44 18.6263 113.525 18.6813 113.595 18.7519C113.666 18.8226 113.721 18.9072 113.757 19.0004C113.793 19.0936 113.809 19.1932 113.804 19.293V24.7805C113.809 24.8803 113.793 24.9799 113.757 25.0731C113.721 25.1663 113.666 25.2509 113.595 25.3216C113.525 25.3922 113.44 25.4473 113.347 25.4832C113.254 25.5192 113.154 25.5352 113.054 25.5304H99.9832V55.6776C99.9909 55.7758 99.9772 55.8745 99.9431 55.9669C99.909 56.0593 99.8553 56.1432 99.7856 56.2129C99.716 56.2825 99.6321 56.3362 99.5397 56.3703C99.4473 56.4044 99.3486 56.4181 99.2504 56.4104H92.4336C92.3396 56.4107 92.2466 56.3915 92.1604 56.3541C92.0741 56.3167 91.9966 56.2619 91.9326 56.1931C91.8685 56.1242 91.8195 56.0429 91.7884 55.9542C91.7573 55.8655 91.7449 55.7714 91.7519 55.6776Z" fill="black"/>
<path d="M114.912 37.562C114.912 25.752 121.456 18.1001 131.698 18.1001C134.071 18.0762 136.413 18.6319 138.522 19.7189C140.63 20.8059 142.442 22.3913 143.798 24.3375H144.105V19.2249C144.098 19.126 144.111 19.0266 144.145 18.9335C144.179 18.8403 144.233 18.7554 144.302 18.6845C144.371 18.6135 144.455 18.5582 144.547 18.5221C144.64 18.4859 144.739 18.4699 144.838 18.475H151.655C151.754 18.4699 151.853 18.4859 151.945 18.5221C152.037 18.5582 152.121 18.6135 152.19 18.6845C152.26 18.7554 152.313 18.8403 152.347 18.9335C152.381 19.0266 152.395 19.126 152.387 19.2249V49.8152H156.478C156.578 49.8076 156.679 49.8217 156.773 49.8567C156.868 49.8917 156.954 49.9466 157.025 50.0179C157.096 50.0891 157.151 50.1749 157.186 50.2693C157.221 50.3638 157.235 50.4647 157.227 50.5651V55.6777C157.232 55.7767 157.216 55.8757 157.18 55.9681C157.144 56.0605 157.089 56.1441 157.018 56.2134C156.947 56.2827 156.862 56.3362 156.769 56.3701C156.676 56.4041 156.576 56.4179 156.478 56.4105H150.939C146.559 56.4105 144.48 54.7063 144.48 50.9911V50.7014H144.173C142.745 52.6591 140.865 54.2425 138.693 55.3167C136.521 56.3909 134.121 56.924 131.698 56.8706C121.456 56.8706 114.912 49.2869 114.912 37.562ZM133.999 50.1731C140.543 50.1731 144.395 45.4354 144.395 37.562C144.395 29.6886 140.458 24.7806 133.999 24.7806C127.54 24.7806 123.314 29.6034 123.314 37.562C123.314 45.5207 127.387 50.1731 133.999 50.1731Z" fill="black"/>
<path d="M159.766 40.0842V19.293C159.762 19.1933 159.778 19.0936 159.814 19.0004C159.85 18.9072 159.905 18.8226 159.975 18.7519C160.046 18.6813 160.131 18.6263 160.224 18.5903C160.317 18.5543 160.417 18.5383 160.516 18.5432H167.333C167.434 18.5355 167.534 18.5496 167.629 18.5846C167.723 18.6196 167.809 18.6746 167.88 18.7458C167.952 18.817 168.007 18.9028 168.042 18.9972C168.076 19.0917 168.091 19.1926 168.083 19.293V41.2431C168.083 47.0203 171.048 50.139 176.399 50.139C181.751 50.139 184.784 47.1737 184.784 41.2431V19.293C184.779 19.1933 184.795 19.0936 184.831 19.0004C184.867 18.9072 184.922 18.8226 184.993 18.7519C185.064 18.6813 185.148 18.6263 185.241 18.5903C185.335 18.5543 185.434 18.5383 185.534 18.5432H192.351C192.45 18.538 192.549 18.5541 192.641 18.5902C192.734 18.6263 192.817 18.6817 192.886 18.7526C192.956 18.8235 193.009 18.9084 193.043 19.0016C193.077 19.0948 193.091 19.1941 193.084 19.293V40.0842C193.084 51.2979 187.596 56.8706 176.451 56.8706C165.305 56.8706 159.766 51.2979 159.766 40.0842Z" fill="black"/>
<path d="M196.68 37.5621C196.68 25.752 203.224 18.1001 213.466 18.1001C215.838 18.0777 218.18 18.634 220.288 19.7209C222.397 20.8078 224.208 22.3924 225.566 24.3375H225.873V3.75078C225.865 3.65188 225.879 3.55253 225.913 3.45935C225.947 3.36618 226 3.2813 226.07 3.21037C226.139 3.13943 226.223 3.08407 226.315 3.04796C226.407 3.01185 226.506 2.99582 226.605 3.00093H233.422C233.521 2.99582 233.62 3.01185 233.713 3.04796C233.805 3.08407 233.889 3.13943 233.958 3.21037C234.027 3.2813 234.081 3.36618 234.115 3.45935C234.149 3.55253 234.162 3.65188 234.155 3.75078V55.7288C234.163 55.827 234.149 55.9257 234.115 56.0181C234.081 56.1105 234.027 56.1944 233.957 56.2641C233.888 56.3337 233.804 56.3874 233.711 56.4215C233.619 56.4556 233.52 56.4693 233.422 56.4616H226.946C226.847 56.469 226.748 56.4553 226.655 56.4213C226.562 56.3873 226.477 56.3339 226.406 56.2646C226.335 56.1953 226.28 56.1116 226.243 56.0193C226.207 55.9269 226.191 55.8279 226.196 55.7288V50.7526H225.907C224.479 52.7103 222.598 54.2937 220.426 55.3679C218.254 56.4421 215.855 56.9752 213.432 56.9218C203.224 56.8706 196.68 49.287 196.68 37.5621ZM215.767 50.1731C222.294 50.1731 226.162 45.4355 226.162 37.5621C226.162 29.6887 222.226 24.7806 215.767 24.7806C209.308 24.7806 205.064 29.6035 205.064 37.5621C205.064 45.5207 209.154 50.1731 215.767 50.1731Z" fill="black"/>
<path d="M238.568 37.5621C238.568 25.752 245.095 18.1002 255.355 18.1002C257.726 18.0792 260.068 18.6362 262.176 19.7229C264.284 20.8097 266.096 22.3935 267.455 24.3376H267.744V19.225C267.739 19.1252 267.755 19.0255 267.791 18.9323C267.827 18.8392 267.882 18.7545 267.953 18.6839C268.024 18.6133 268.108 18.5582 268.201 18.5223C268.295 18.4863 268.394 18.4702 268.494 18.4751H275.311C275.411 18.4674 275.512 18.4816 275.607 18.5166C275.701 18.5515 275.787 18.6065 275.858 18.6777C275.929 18.7489 275.984 18.8347 276.019 18.9292C276.054 19.0236 276.068 19.1245 276.061 19.225V49.8153H280.151C280.25 49.8102 280.349 49.8262 280.441 49.8623C280.534 49.8984 280.617 49.9538 280.687 50.0247C280.756 50.0957 280.809 50.1806 280.843 50.2737C280.877 50.3669 280.891 50.4663 280.884 50.5652V55.6778C280.891 55.7759 280.878 55.8746 280.843 55.967C280.809 56.0594 280.756 56.1433 280.686 56.213C280.616 56.2826 280.532 56.3363 280.44 56.3704C280.348 56.4046 280.249 56.4182 280.151 56.4106H274.663C270.283 56.4106 268.204 54.7064 268.204 50.9912V50.7015H267.846C266.416 52.6571 264.536 54.2389 262.364 55.3129C260.193 56.3868 257.794 56.9212 255.372 56.8707C245.095 56.8707 238.568 49.287 238.568 37.5621ZM257.655 50.1732C264.182 50.1732 268.051 45.4355 268.051 37.5621C268.051 29.6887 264.114 24.7806 257.655 24.7806C251.196 24.7806 246.953 29.6035 246.953 37.5621C246.953 45.5207 251.043 50.1732 257.621 50.1732H257.655Z" fill="black"/>
<g clip-path="url(#clip0_2119_294)">
<path d="M22.5519 24.0444H6.25V61.75C6.25 62.3023 6.69772 62.75 7.25 62.75H21.5519C22.1042 62.75 22.5519 62.3023 22.5519 61.75V24.0444Z" fill="black"/>
<path d="M22.5519 7.75V24.0444H6.25C6.25 19.7229 7.96751 15.5783 11.0247 12.5225C14.0819 9.46673 18.2283 7.75 22.5519 7.75Z" fill="black"/>
<path d="M60.2499 7.75H22.5518V24.0444H60.2499C60.8022 24.0444 61.2499 23.5967 61.2499 23.0444V8.75C61.2499 8.19772 60.8022 7.75 60.2499 7.75Z" fill="black"/>
<path d="M47.005 31.3895C42.7288 31.3889 38.6237 33.0677 35.5743 36.0641C32.5249 39.0605 30.7755 43.1345 30.7031 47.4081V61.7499C30.7031 62.3022 31.1508 62.7499 31.7031 62.7499H46.005C46.5573 62.7499 47.005 62.3022 47.005 61.7499V47.7089H60.2503C60.8026 47.7089 61.2503 47.2612 61.2503 46.7089V32.4127C61.2503 31.8611 60.8037 31.4137 60.2521 31.4127L47.005 31.3895Z" fill="black"/>
</g>
<path d="M286.648 56.603C286.054 56.603 285.905 56.2315 286.054 55.7857L304.259 5.18211C304.408 4.73626 304.853 4.58765 305.151 4.58765H314.068C314.365 4.58765 314.811 4.73626 314.959 5.18211L333.165 55.7857C333.313 56.2315 333.165 56.603 332.57 56.603H325.437C325.139 56.603 324.694 56.4544 324.545 56.0086L320.904 45.1596H298.166L294.525 56.0086C294.376 56.3801 294.005 56.603 293.633 56.603H286.648ZM300.618 37.8775H318.452L309.683 12.0184H309.386L300.618 37.8775Z" fill="black"/>
<path d="M338.088 56.603C337.642 56.603 337.344 56.3058 337.344 55.86V5.33072C337.344 4.88488 337.642 4.58765 338.088 4.58765H345.147C345.593 4.58765 345.89 4.88488 345.89 5.33072V55.86C345.89 56.3058 345.593 56.603 345.147 56.603H338.088Z" fill="black"/>
<defs>
<clipPath id="clip0_2119_294">
<rect width="55" height="55" fill="white" transform="translate(6.25 7.75)"/>
</clipPath>
</defs>
</svg>
